<svg xmlns="http://www.w3.org/2000/svg" width="320" height="320" viewBox="0 0 320 320">
  <!-- Board background / frame -->
  <rect width="320" height="320" rx="7" fill="#5a3e28"/>
  <rect x="2" y="2" width="316" height="316" rx="5.5" fill="#b58863"/>

  <!-- Squares — row 0 (rank 8, top): L D L D L D L D -->
  <rect x="2"   y="2"  width="39" height="39" fill="#eeeed2"/>
  <rect x="41"  y="2"  width="39" height="39" fill="#769656"/>
  <rect x="80"  y="2"  width="39" height="39" fill="#eeeed2"/>
  <rect x="119" y="2"  width="39" height="39" fill="#769656"/>
  <rect x="158" y="2"  width="39" height="39" fill="#eeeed2"/>
  <rect x="197" y="2"  width="39" height="39" fill="#769656"/>
  <rect x="236" y="2"  width="39" height="39" fill="#eeeed2"/>
  <rect x="275" y="2"  width="43" height="39" fill="#769656"/>

  <!-- row 1 (rank 7): D L D L D L D L -->
  <rect x="2"   y="41" width="39" height="39" fill="#769656"/>
  <rect x="41"  y="41" width="39" height="39" fill="#eeeed2"/>
  <rect x="80"  y="41" width="39" height="39" fill="#769656"/>
  <rect x="119" y="41" width="39" height="39" fill="#eeeed2"/>
  <rect x="158" y="41" width="39" height="39" fill="#769656"/>
  <rect x="197" y="41" width="39" height="39" fill="#eeeed2"/>
  <rect x="236" y="41" width="39" height="39" fill="#769656"/>
  <rect x="275" y="41" width="43" height="39" fill="#eeeed2"/>

  <!-- row 2 (rank 6): L D L D L D L D -->
  <rect x="2"   y="80" width="39" height="40" fill="#eeeed2"/>
  <rect x="41"  y="80" width="39" height="40" fill="#769656"/>
  <rect x="80"  y="80" width="39" height="40" fill="#eeeed2"/>
  <rect x="119" y="80" width="39" height="40" fill="#769656"/>
  <rect x="158" y="80" width="39" height="40" fill="#eeeed2"/>
  <rect x="197" y="80" width="39" height="40" fill="#769656"/>
  <rect x="236" y="80" width="39" height="40" fill="#eeeed2"/>
  <rect x="275" y="80" width="43" height="40" fill="#769656"/>

  <!-- row 3 (rank 5): D L D L D L D L -->
  <rect x="2"   y="120" width="39" height="40" fill="#769656"/>
  <rect x="41"  y="120" width="39" height="40" fill="#eeeed2"/>
  <rect x="80"  y="120" width="39" height="40" fill="#769656"/>
  <rect x="119" y="120" width="39" height="40" fill="#eeeed2"/>
  <rect x="158" y="120" width="39" height="40" fill="#769656"/>
  <rect x="197" y="120" width="39" height="40" fill="#eeeed2"/>
  <rect x="236" y="120" width="39" height="40" fill="#769656"/>
  <rect x="275" y="120" width="43" height="40" fill="#eeeed2"/>

  <!-- row 4 (rank 4): L D L D L D L D -->
  <rect x="2"   y="160" width="39" height="40" fill="#eeeed2"/>
  <rect x="41"  y="160" width="39" height="40" fill="#769656"/>
  <rect x="80"  y="160" width="39" height="40" fill="#eeeed2"/>
  <rect x="119" y="160" width="39" height="40" fill="#769656"/>
  <rect x="158" y="160" width="39" height="40" fill="#eeeed2"/>
  <rect x="197" y="160" width="39" height="40" fill="#769656"/>
  <rect x="236" y="160" width="39" height="40" fill="#eeeed2"/>
  <rect x="275" y="160" width="43" height="40" fill="#769656"/>

  <!-- row 5 (rank 3): D L D L D L D L -->
  <rect x="2"   y="200" width="39" height="40" fill="#769656"/>
  <rect x="41"  y="200" width="39" height="40" fill="#eeeed2"/>
  <rect x="80"  y="200" width="39" height="40" fill="#769656"/>
  <rect x="119" y="200" width="39" height="40" fill="#eeeed2"/>
  <rect x="158" y="200" width="39" height="40" fill="#769656"/>
  <rect x="197" y="200" width="39" height="40" fill="#eeeed2"/>
  <rect x="236" y="200" width="39" height="40" fill="#769656"/>
  <rect x="275" y="200" width="43" height="40" fill="#eeeed2"/>

  <!-- row 6 (rank 2): L D L D L D L D -->
  <rect x="2"   y="240" width="39" height="39" fill="#eeeed2"/>
  <rect x="41"  y="240" width="39" height="39" fill="#769656"/>
  <rect x="80"  y="240" width="39" height="39" fill="#eeeed2"/>
  <rect x="119" y="240" width="39" height="39" fill="#769656"/>
  <rect x="158" y="240" width="39" height="39" fill="#eeeed2"/>
  <rect x="197" y="240" width="39" height="39" fill="#769656"/>
  <rect x="236" y="240" width="39" height="39" fill="#eeeed2"/>
  <rect x="275" y="240" width="43" height="39" fill="#769656"/>

  <!-- row 7 (rank 1): D L D L D L D L -->
  <rect x="2"   y="279" width="39" height="39" fill="#769656"/>
  <rect x="41"  y="279" width="39" height="39" fill="#eeeed2"/>
  <rect x="80"  y="279" width="39" height="39" fill="#769656"/>
  <rect x="119" y="279" width="39" height="39" fill="#eeeed2"/>
  <rect x="158" y="279" width="39" height="39" fill="#769656"/>
  <rect x="197" y="279" width="39" height="39" fill="#eeeed2"/>
  <rect x="236" y="279" width="39" height="39" fill="#769656"/>
  <rect x="275" y="279" width="43" height="39" fill="#eeeed2"/>

  <!-- Black pieces (row 0, y baseline = 2+29 = 31) -->
  <text x="21"  y="31" text-anchor="middle" font-size="26" fill="#111" font-family="serif">♜</text>
  <text x="60"  y="31" text-anchor="middle" font-size="26" fill="#111" font-family="serif">♞</text>
  <text x="99"  y="31" text-anchor="middle" font-size="26" fill="#111" font-family="serif">♝</text>
  <text x="138" y="31" text-anchor="middle" font-size="26" fill="#111" font-family="serif">♛</text>
  <text x="177" y="31" text-anchor="middle" font-size="26" fill="#111" font-family="serif">♚</text>
  <text x="216" y="31" text-anchor="middle" font-size="26" fill="#111" font-family="serif">♝</text>
  <text x="255" y="31" text-anchor="middle" font-size="26" fill="#111" font-family="serif">♞</text>
  <text x="296" y="31" text-anchor="middle" font-size="26" fill="#111" font-family="serif">♜</text>

  <!-- Black pawns (row 1, y = 41+29 = 70) -->
  <text x="21"  y="70" text-anchor="middle" font-size="26" fill="#111" font-family="serif">♟</text>
  <text x="60"  y="70" text-anchor="middle" font-size="26" fill="#111" font-family="serif">♟</text>
  <text x="99"  y="70" text-anchor="middle" font-size="26" fill="#111" font-family="serif">♟</text>
  <text x="138" y="70" text-anchor="middle" font-size="26" fill="#111" font-family="serif">♟</text>
  <text x="177" y="70" text-anchor="middle" font-size="26" fill="#111" font-family="serif">♟</text>
  <text x="216" y="70" text-anchor="middle" font-size="26" fill="#111" font-family="serif">♟</text>
  <text x="255" y="70" text-anchor="middle" font-size="26" fill="#111" font-family="serif">♟</text>
  <text x="296" y="70" text-anchor="middle" font-size="26" fill="#111" font-family="serif">♟</text>

  <!-- White pawns (row 6, y = 240+29 = 269) -->
  <text x="21"  y="269" text-anchor="middle" font-size="26" fill="#fff" stroke="#555" stroke-width="0.5" font-family="serif">♙</text>
  <text x="60"  y="269" text-anchor="middle" font-size="26" fill="#fff" stroke="#555" stroke-width="0.5" font-family="serif">♙</text>
  <text x="99"  y="269" text-anchor="middle" font-size="26" fill="#fff" stroke="#555" stroke-width="0.5" font-family="serif">♙</text>
  <text x="138" y="269" text-anchor="middle" font-size="26" fill="#fff" stroke="#555" stroke-width="0.5" font-family="serif">♙</text>
  <text x="177" y="269" text-anchor="middle" font-size="26" fill="#fff" stroke="#555" stroke-width="0.5" font-family="serif">♙</text>
  <text x="216" y="269" text-anchor="middle" font-size="26" fill="#fff" stroke="#555" stroke-width="0.5" font-family="serif">♙</text>
  <text x="255" y="269" text-anchor="middle" font-size="26" fill="#fff" stroke="#555" stroke-width="0.5" font-family="serif">♙</text>
  <text x="296" y="269" text-anchor="middle" font-size="26" fill="#fff" stroke="#555" stroke-width="0.5" font-family="serif">♙</text>

  <!-- White pieces (row 7, y = 279+29 = 308) -->
  <text x="21"  y="308" text-anchor="middle" font-size="26" fill="#fff" stroke="#555" stroke-width="0.5" font-family="serif">♖</text>
  <text x="60"  y="308" text-anchor="middle" font-size="26" fill="#fff" stroke="#555" stroke-width="0.5" font-family="serif">♘</text>
  <text x="99"  y="308" text-anchor="middle" font-size="26" fill="#fff" stroke="#555" stroke-width="0.5" font-family="serif">♗</text>
  <text x="138" y="308" text-anchor="middle" font-size="26" fill="#fff" stroke="#555" stroke-width="0.5" font-family="serif">♕</text>
  <text x="177" y="308" text-anchor="middle" font-size="26" fill="#fff" stroke="#555" stroke-width="0.5" font-family="serif">♔</text>
  <text x="216" y="308" text-anchor="middle" font-size="26" fill="#fff" stroke="#555" stroke-width="0.5" font-family="serif">♗</text>
  <text x="255" y="308" text-anchor="middle" font-size="26" fill="#fff" stroke="#555" stroke-width="0.5" font-family="serif">♘</text>
  <text x="296" y="308" text-anchor="middle" font-size="26" fill="#fff" stroke="#555" stroke-width="0.5" font-family="serif">♖</text>
</svg>
